<?xml version="1.0" encoding="UTF-8" standalone="no"?>
<!DOCTYPE svg PUBLIC "-//W3C//DTD SVG 1.1//EN"
 "http://www.w3.org/Graphics/SVG/1.1/DTD/svg11.dtd">
<!-- Generated by graphviz version 13.1.0 (20250701.0955)
 -->
<!-- Pages: 1 -->
<svg width="2255pt" height="2400pt"
 viewBox="0.00 0.00 2255.00 2400.00" xmlns="http://www.w3.org/2000/svg" xmlns:xlink="http://www.w3.org/1999/xlink">
<g id="graph0" class="graph" transform="scale(4.10959 4.10959) rotate(0) translate(4 580)">
<polygon fill="white" stroke="none" points="-4,4 -4,-580 544.6,-580 544.6,4 -4,4"/>
<!-- root -->
<g id="node1" class="node">
<title>root</title>
<ellipse fill="none" stroke="black" cx="97.93" cy="-315" rx="97.93" ry="18"/>
<text xml:space="preserve" text-anchor="middle" x="97.93" y="-309.95" font-family="Times New Roman,serif" font-size="14.00">Heart_Disease_Project/</text>
</g>
<!-- data/ -->
<g id="node2" class="node">
<title>data/</title>
<polygon fill="none" stroke="black" points="296.48,-495 293.48,-499 272.48,-499 269.48,-495 242.48,-495 242.48,-459 296.48,-459 296.48,-495"/>
<text xml:space="preserve" text-anchor="middle" x="269.48" y="-471.95" font-family="Times New Roman,serif" font-size="14.00">data/</text>
</g>
<!-- root&#45;&gt;data/ -->
<g id="edge1" class="edge">
<title>root&#45;&gt;data/</title>
<path fill="none" stroke="black" d="M117.72,-332.96C147.68,-361.59 206.43,-417.72 241.08,-450.83"/>
<polygon fill="black" stroke="black" points="238.6,-453.29 248.25,-457.67 243.43,-448.23 238.6,-453.29"/>
</g>
<!-- models/ -->
<g id="node3" class="node">
<title>models/</title>
<polygon fill="none" stroke="black" points="299.23,-414 296.23,-418 275.23,-418 272.23,-414 239.73,-414 239.73,-378 299.23,-378 299.23,-414"/>
<text xml:space="preserve" text-anchor="middle" x="269.48" y="-390.95" font-family="Times New Roman,serif" font-size="14.00">models/</text>
</g>
<!-- root&#45;&gt;models/ -->
<g id="edge2" class="edge">
<title>root&#45;&gt;models/</title>
<path fill="none" stroke="black" d="M134.47,-331.98C162.23,-345.24 200.77,-363.65 229.4,-377.33"/>
<polygon fill="black" stroke="black" points="227.56,-380.33 238.09,-381.48 230.58,-374.02 227.56,-380.33"/>
</g>
<!-- notebooks/ -->
<g id="node4" class="node">
<title>notebooks/</title>
<polygon fill="none" stroke="black" points="307.1,-360 304.1,-364 283.1,-364 280.1,-360 231.85,-360 231.85,-324 307.1,-324 307.1,-360"/>
<text xml:space="preserve" text-anchor="middle" x="269.48" y="-336.95" font-family="Times New Roman,serif" font-size="14.00">notebooks/</text>
</g>
<!-- root&#45;&gt;notebooks/ -->
<g id="edge3" class="edge">
<title>root&#45;&gt;notebooks/</title>
<path fill="none" stroke="black" d="M173.29,-326.84C189.16,-329.37 205.52,-331.97 220.11,-334.3"/>
<polygon fill="black" stroke="black" points="219.46,-337.74 229.89,-335.85 220.56,-330.83 219.46,-337.74"/>
</g>
<!-- results/ -->
<g id="node5" class="node">
<title>results/</title>
<polygon fill="none" stroke="black" points="296.98,-306 293.98,-310 272.98,-310 269.98,-306 241.98,-306 241.98,-270 296.98,-270 296.98,-306"/>
<text xml:space="preserve" text-anchor="middle" x="269.48" y="-282.95" font-family="Times New Roman,serif" font-size="14.00">results/</text>
</g>
<!-- root&#45;&gt;results/ -->
<g id="edge4" class="edge">
<title>root&#45;&gt;results/</title>
<path fill="none" stroke="black" d="M173.29,-303.16C193.1,-300 213.68,-296.73 230.61,-294.03"/>
<polygon fill="black" stroke="black" points="230.88,-297.53 240.21,-292.5 229.78,-290.62 230.88,-297.53"/>
</g>
<!-- scripts/ -->
<g id="node6" class="node">
<title>scripts/</title>
<polygon fill="none" stroke="black" points="296.98,-252 293.98,-256 272.98,-256 269.98,-252 241.98,-252 241.98,-216 296.98,-216 296.98,-252"/>
<text xml:space="preserve" text-anchor="middle" x="269.48" y="-228.95" font-family="Times New Roman,serif" font-size="14.00">scripts/</text>
</g>
<!-- root&#45;&gt;scripts/ -->
<g id="edge5" class="edge">
<title>root&#45;&gt;scripts/</title>
<path fill="none" stroke="black" d="M134.47,-298.02C162.92,-284.43 202.7,-265.42 231.52,-251.66"/>
<polygon fill="black" stroke="black" points="232.72,-254.96 240.23,-247.49 229.7,-248.64 232.72,-254.96"/>
</g>
<!-- ui/ -->
<g id="node7" class="node">
<title>ui/</title>
<polygon fill="none" stroke="black" points="296.48,-117 293.48,-121 272.48,-121 269.48,-117 242.48,-117 242.48,-81 296.48,-81 296.48,-117"/>
<text xml:space="preserve" text-anchor="middle" x="269.48" y="-93.95" font-family="Times New Roman,serif" font-size="14.00">ui/</text>
</g>
<!-- root&#45;&gt;ui/ -->
<g id="edge6" class="edge">
<title>root&#45;&gt;ui/</title>
<path fill="none" stroke="black" d="M113.09,-296.96C142.81,-259.09 211.84,-171.15 247.03,-126.33"/>
<polygon fill="black" stroke="black" points="249.64,-128.67 253.06,-118.64 244.13,-124.35 249.64,-128.67"/>
</g>
<!-- heart_disease.csv -->
<g id="node8" class="node">
<title>heart_disease.csv</title>
<polygon fill="none" stroke="black" points="491.1,-576 386.6,-576 386.6,-540 497.1,-540 497.1,-570 491.1,-576"/>
<polyline fill="none" stroke="black" points="491.1,-576 491.1,-570"/>
<polyline fill="none" stroke="black" points="497.1,-570 491.1,-570"/>
<text xml:space="preserve" text-anchor="middle" x="441.85" y="-552.95" font-family="Times New Roman,serif" font-size="14.00">heart_disease.csv</text>
</g>
<!-- data/&#45;&gt;heart_disease.csv -->
<g id="edge7" class="edge">
<title>data/&#45;&gt;heart_disease.csv</title>
<path fill="none" stroke="black" d="M290.73,-495.29C304.61,-506.97 323.9,-521.62 343.1,-531 353.19,-535.93 364.31,-540.07 375.33,-543.52"/>
<polygon fill="black" stroke="black" points="374.24,-546.85 384.82,-546.32 376.22,-540.14 374.24,-546.85"/>
</g>
<!-- heart_disease_cleaned.csv -->
<g id="node9" class="node">
<title>heart_disease_cleaned.csv</title>
<polygon fill="none" stroke="black" points="515.1,-522 362.6,-522 362.6,-486 521.1,-486 521.1,-516 515.1,-522"/>
<polyline fill="none" stroke="black" points="515.1,-522 515.1,-516"/>
<polyline fill="none" stroke="black" points="521.1,-516 515.1,-516"/>
<text xml:space="preserve" text-anchor="middle" x="441.85" y="-498.95" font-family="Times New Roman,serif" font-size="14.00">heart_disease_cleaned.csv</text>
</g>
<!-- data/&#45;&gt;heart_disease_cleaned.csv -->
<g id="edge8" class="edge">
<title>data/&#45;&gt;heart_disease_cleaned.csv</title>
<path fill="none" stroke="black" d="M296.72,-481.16C311.54,-483.51 331.02,-486.59 350.85,-489.74"/>
<polygon fill="black" stroke="black" points="350.29,-493.19 360.71,-491.3 351.38,-486.28 350.29,-493.19"/>
</g>
<!-- test_patients.csv -->
<g id="node10" class="node">
<title>test_patients.csv</title>
<polygon fill="none" stroke="black" points="488.48,-468 389.23,-468 389.23,-432 494.48,-432 494.48,-462 488.48,-468"/>
<polyline fill="none" stroke="black" points="488.48,-468 488.48,-462"/>
<polyline fill="none" stroke="black" points="494.48,-462 488.48,-462"/>
<text xml:space="preserve" text-anchor="middle" x="441.85" y="-444.95" font-family="Times New Roman,serif" font-size="14.00">test_patients.csv</text>
</g>
<!-- data/&#45;&gt;test_patients.csv -->
<g id="edge9" class="edge">
<title>data/&#45;&gt;test_patients.csv</title>
<path fill="none" stroke="black" d="M296.72,-472.84C318.22,-469.43 349.53,-464.47 377.49,-460.04"/>
<polygon fill="black" stroke="black" points="377.99,-463.51 387.32,-458.48 376.89,-456.59 377.99,-463.51"/>
</g>
<!-- final_model.pkl -->
<g id="node11" class="node">
<title>final_model.pkl</title>
<polygon fill="none" stroke="black" points="487.35,-414 390.35,-414 390.35,-378 493.35,-378 493.35,-408 487.35,-414"/>
<polyline fill="none" stroke="black" points="487.35,-414 487.35,-408"/>
<polyline fill="none" stroke="black" points="493.35,-408 487.35,-408"/>
<text xml:space="preserve" text-anchor="middle" x="441.85" y="-390.95" font-family="Times New Roman,serif" font-size="14.00">final_model.pkl</text>
</g>
<!-- models/&#45;&gt;final_model.pkl -->
<g id="edge10" class="edge">
<title>models/&#45;&gt;final_model.pkl</title>
<path fill="none" stroke="black" d="M299.38,-396C321.06,-396 351.55,-396 378.67,-396"/>
<polygon fill="black" stroke="black" points="378.54,-399.5 388.54,-396 378.54,-392.5 378.54,-399.5"/>
</g>
<!-- 01_data_preprocessing.py -->
<g id="node12" class="node">
<title>01_data_preprocessing.py</title>
<polygon fill="none" stroke="black" points="514.73,-360 362.98,-360 362.98,-324 520.73,-324 520.73,-354 514.73,-360"/>
<polyline fill="none" stroke="black" points="514.73,-360 514.73,-354"/>
<polyline fill="none" stroke="black" points="520.73,-354 514.73,-354"/>
<text xml:space="preserve" text-anchor="middle" x="441.85" y="-336.95" font-family="Times New Roman,serif" font-size="14.00">01_data_preprocessing.py</text>
</g>
<!-- scripts/&#45;&gt;01_data_preprocessing.py -->
<g id="edge11" class="edge">
<title>scripts/&#45;&gt;01_data_preprocessing.py</title>
<path fill="none" stroke="black" d="M297.4,-252.14C300.83,-254.93 304.16,-257.91 307.1,-261 327.01,-281.87 319.73,-298.1 343.1,-315 346.1,-317.17 349.26,-319.16 352.54,-320.99"/>
<polygon fill="black" stroke="black" points="350.82,-324.05 361.34,-325.35 353.93,-317.78 350.82,-324.05"/>
</g>
<!-- 02_train_baseline_models.py -->
<g id="node13" class="node">
<title>02_train_baseline_models.py</title>
<polygon fill="none" stroke="black" points="523.73,-306 353.98,-306 353.98,-270 529.73,-270 529.73,-300 523.73,-306"/>
<polyline fill="none" stroke="black" points="523.73,-306 523.73,-300"/>
<polyline fill="none" stroke="black" points="529.73,-300 523.73,-300"/>
<text xml:space="preserve" text-anchor="middle" x="441.85" y="-282.95" font-family="Times New Roman,serif" font-size="14.00">02_train_baseline_models.py</text>
</g>
<!-- scripts/&#45;&gt;02_train_baseline_models.py -->
<g id="edge12" class="edge">
<title>scripts/&#45;&gt;02_train_baseline_models.py</title>
<path fill="none" stroke="black" d="M297.19,-244.56C310.83,-249.79 327.74,-256.03 343.1,-261 348.76,-262.83 354.62,-264.64 360.53,-266.42"/>
<polygon fill="black" stroke="black" points="359.18,-269.67 369.76,-269.13 361.16,-262.95 359.18,-269.67"/>
</g>
<!-- 03_feature_selection_and_pca.py -->
<g id="node14" class="node">
<title>03_feature_selection_and_pca.py</title>
<polygon fill="none" stroke="black" points="534.6,-252 343.1,-252 343.1,-216 540.6,-216 540.6,-246 534.6,-252"/>
<polyline fill="none" stroke="black" points="534.6,-252 534.6,-246"/>
<polyline fill="none" stroke="black" points="540.6,-246 534.6,-246"/>
<text xml:space="preserve" text-anchor="middle" x="441.85" y="-228.95" font-family="Times New Roman,serif" font-size="14.00">03_feature_selection_and_pca.py</text>
</g>
<!-- scripts/&#45;&gt;03_feature_selection_and_pca.py -->
<g id="edge13" class="edge">
<title>scripts/&#45;&gt;03_feature_selection_and_pca.py</title>
<path fill="none" stroke="black" d="M297.47,-234C307.27,-234 319.03,-234 331.56,-234"/>
<polygon fill="black" stroke="black" points="331.21,-237.5 341.21,-234 331.21,-230.5 331.21,-237.5"/>
</g>
<!-- 04_clustering.py -->
<g id="node15" class="node">
<title>04_clustering.py</title>
<polygon fill="none" stroke="black" points="489.23,-198 388.48,-198 388.48,-162 495.23,-162 495.23,-192 489.23,-198"/>
<polyline fill="none" stroke="black" points="489.23,-198 489.23,-192"/>
<polyline fill="none" stroke="black" points="495.23,-192 489.23,-192"/>
<text xml:space="preserve" text-anchor="middle" x="441.85" y="-174.95" font-family="Times New Roman,serif" font-size="14.00">04_clustering.py</text>
</g>
<!-- scripts/&#45;&gt;04_clustering.py -->
<g id="edge14" class="edge">
<title>scripts/&#45;&gt;04_clustering.py</title>
<path fill="none" stroke="black" d="M297.19,-223.44C310.83,-218.21 327.74,-211.97 343.1,-207 354.08,-203.45 365.85,-199.95 377.28,-196.7"/>
<polygon fill="black" stroke="black" points="377.95,-200.15 386.64,-194.08 376.07,-193.41 377.95,-200.15"/>
</g>
<!-- 05_hyperparameter_tuning.py -->
<g id="node16" class="node">
<title>05_hyperparameter_tuning.py</title>
<polygon fill="none" stroke="black" points="525.98,-144 351.73,-144 351.73,-108 531.98,-108 531.98,-138 525.98,-144"/>
<polyline fill="none" stroke="black" points="525.98,-144 525.98,-138"/>
<polyline fill="none" stroke="black" points="531.98,-138 525.98,-138"/>
<text xml:space="preserve" text-anchor="middle" x="441.85" y="-120.95" font-family="Times New Roman,serif" font-size="14.00">05_hyperparameter_tuning.py</text>
</g>
<!-- scripts/&#45;&gt;05_hyperparameter_tuning.py -->
<g id="edge15" class="edge">
<title>scripts/&#45;&gt;05_hyperparameter_tuning.py</title>
<path fill="none" stroke="black" d="M282.14,-215.78C294.92,-197.27 317.09,-169.11 343.1,-153 345.23,-151.68 347.42,-150.43 349.67,-149.23"/>
<polygon fill="black" stroke="black" points="350.93,-152.51 358.43,-145.02 347.9,-146.2 350.93,-152.51"/>
</g>
<!-- bulk_predict.py -->
<g id="node17" class="node">
<title>bulk_predict.py</title>
<polygon fill="none" stroke="black" points="486.6,-90 391.1,-90 391.1,-54 492.6,-54 492.6,-84 486.6,-90"/>
<polyline fill="none" stroke="black" points="486.6,-90 486.6,-84"/>
<polyline fill="none" stroke="black" points="492.6,-84 486.6,-84"/>
<text xml:space="preserve" text-anchor="middle" x="441.85" y="-66.95" font-family="Times New Roman,serif" font-size="14.00">bulk_predict.py</text>
</g>
<!-- scripts/&#45;&gt;bulk_predict.py -->
<g id="edge16" class="edge">
<title>scripts/&#45;&gt;bulk_predict.py</title>
<path fill="none" stroke="black" d="M275.26,-215.69C283.83,-186.53 304.61,-129.7 343.1,-99 353.69,-90.55 366.75,-84.74 379.83,-80.75"/>
<polygon fill="black" stroke="black" points="380.57,-84.18 389.31,-78.2 378.75,-77.42 380.57,-84.18"/>
</g>
<!-- app.py -->
<g id="node18" class="node">
<title>app.py</title>
<polygon fill="none" stroke="black" points="462.85,-36 414.85,-36 414.85,0 468.85,0 468.85,-30 462.85,-36"/>
<polyline fill="none" stroke="black" points="462.85,-36 462.85,-30"/>
<polyline fill="none" stroke="black" points="468.85,-30 462.85,-30"/>
<text xml:space="preserve" text-anchor="middle" x="441.85" y="-12.95" font-family="Times New Roman,serif" font-size="14.00">app.py</text>
</g>
<!-- ui/&#45;&gt;app.py -->
<g id="edge17" class="edge">
<title>ui/&#45;&gt;app.py</title>
<path fill="none" stroke="black" d="M290.73,-80.71C304.61,-69.03 323.9,-54.38 343.1,-45 362.1,-35.72 384.78,-29.21 403.51,-24.9"/>
<polygon fill="black" stroke="black" points="404.08,-28.36 413.11,-22.83 402.6,-21.52 404.08,-28.36"/>
</g>
</g>
</svg>
