<?xml version="1.0" encoding="UTF-8" standalone="no"?>
<!DOCTYPE svg PUBLIC "-//W3C//DTD SVG 1.1//EN"
 "http://www.w3.org/Graphics/SVG/1.1/DTD/svg11.dtd">
<!-- Generated by graphviz version 13.1.0 (20250701.0955)
 -->
<!-- Pages: 1 -->
<svg width="2400pt" height="152pt"
 viewBox="0.00 0.00 2400.00 152.00" xmlns="http://www.w3.org/2000/svg" xmlns:xlink="http://www.w3.org/1999/xlink">
<g id="graph0" class="graph" transform="scale(2.36046 2.36046) rotate(0) translate(4 60.38)">
<polygon fill="white" stroke="none" points="-4,4 -4,-60.38 1012.75,-60.38 1012.75,4 -4,4"/>
<!-- raw -->
<g id="node1" class="node">
<title>raw</title>
<polygon fill="lightblue" stroke="black" points="136,-46.19 0,-46.19 0,-10.19 136,-10.19 136,-46.19"/>
<text xml:space="preserve" text-anchor="middle" x="68" y="-23.14" font-family="Times New Roman,serif" font-size="14.00">Raw Data (UCI CSV)</text>
</g>
<!-- pre -->
<g id="node2" class="node">
<title>pre</title>
<polygon fill="lightyellow" stroke="black" points="279.5,-48.69 172,-48.69 172,-7.69 279.5,-7.69 279.5,-48.69"/>
<text xml:space="preserve" text-anchor="middle" x="225.75" y="-31.39" font-family="Times New Roman,serif" font-size="14.00">Preprocessing</text>
<text xml:space="preserve" text-anchor="middle" x="225.75" y="-14.89" font-family="Times New Roman,serif" font-size="14.00">(clean + encode)</text>
</g>
<!-- raw&#45;&gt;pre -->
<g id="edge1" class="edge">
<title>raw&#45;&gt;pre</title>
<path fill="none" stroke="black" d="M136.41,-28.19C144.36,-28.19 152.47,-28.19 160.38,-28.19"/>
<polygon fill="black" stroke="black" points="160.28,-31.69 170.28,-28.19 160.28,-24.69 160.28,-31.69"/>
</g>
<!-- train -->
<g id="node3" class="node">
<title>train</title>
<polygon fill="lightgreen" stroke="black" points="465.75,-48.69 315.5,-48.69 315.5,-7.69 465.75,-7.69 465.75,-48.69"/>
<text xml:space="preserve" text-anchor="middle" x="390.62" y="-31.39" font-family="Times New Roman,serif" font-size="14.00">Model Training</text>
<text xml:space="preserve" text-anchor="middle" x="390.62" y="-14.89" font-family="Times New Roman,serif" font-size="14.00">(LogReg, RF, XGBoost)</text>
</g>
<!-- pre&#45;&gt;train -->
<g id="edge2" class="edge">
<title>pre&#45;&gt;train</title>
<path fill="none" stroke="black" d="M279.63,-28.19C287.42,-28.19 295.61,-28.19 303.86,-28.19"/>
<polygon fill="black" stroke="black" points="303.6,-31.69 313.6,-28.19 303.6,-24.69 303.6,-31.69"/>
</g>
<!-- eval -->
<g id="node4" class="node">
<title>eval</title>
<polygon fill="lightpink" stroke="black" points="645.25,-46.19 501.75,-46.19 501.75,-10.19 645.25,-10.19 645.25,-46.19"/>
<text xml:space="preserve" text-anchor="middle" x="573.5" y="-23.14" font-family="Times New Roman,serif" font-size="14.00">Evaluation &amp; Selection</text>
</g>
<!-- train&#45;&gt;eval -->
<g id="edge3" class="edge">
<title>train&#45;&gt;eval</title>
<path fill="none" stroke="black" d="M466.24,-28.19C474.02,-28.19 481.96,-28.19 489.82,-28.19"/>
<polygon fill="black" stroke="black" points="489.75,-31.69 499.75,-28.19 489.75,-24.69 489.75,-31.69"/>
</g>
<!-- model -->
<g id="node5" class="node">
<title>model</title>
<path fill="orange" stroke="black" d="M793.25,-51.25C793.25,-54.08 768.15,-56.38 737.25,-56.38 706.35,-56.38 681.25,-54.08 681.25,-51.25 681.25,-51.25 681.25,-5.12 681.25,-5.12 681.25,-2.3 706.35,0 737.25,0 768.15,0 793.25,-2.3 793.25,-5.12 793.25,-5.12 793.25,-51.25 793.25,-51.25"/>
<path fill="none" stroke="black" d="M793.25,-51.25C793.25,-48.42 768.15,-46.12 737.25,-46.12 706.35,-46.12 681.25,-48.42 681.25,-51.25"/>
<text xml:space="preserve" text-anchor="middle" x="737.25" y="-31.39" font-family="Times New Roman,serif" font-size="14.00">Best Model</text>
<text xml:space="preserve" text-anchor="middle" x="737.25" y="-14.89" font-family="Times New Roman,serif" font-size="14.00">(final_model.pkl)</text>
</g>
<!-- eval&#45;&gt;model -->
<g id="edge4" class="edge">
<title>eval&#45;&gt;model</title>
<path fill="none" stroke="black" d="M645.45,-28.19C653.43,-28.19 661.55,-28.19 669.47,-28.19"/>
<polygon fill="black" stroke="black" points="669.41,-31.69 679.41,-28.19 669.41,-24.69 669.41,-31.69"/>
</g>
<!-- ui -->
<g id="node6" class="node">
<title>ui</title>
<polygon fill="lightgray" stroke="black" points="1008.75,-48.69 829.25,-48.69 829.25,-44.69 825.25,-44.69 825.25,-40.69 829.25,-40.69 829.25,-15.69 825.25,-15.69 825.25,-11.69 829.25,-11.69 829.25,-7.69 1008.75,-7.69 1008.75,-48.69"/>
<polyline fill="none" stroke="black" points="829.25,-44.69 833.25,-44.69 833.25,-40.69 829.25,-40.69"/>
<polyline fill="none" stroke="black" points="829.25,-15.69 833.25,-15.69 833.25,-11.69 829.25,-11.69"/>
<text xml:space="preserve" text-anchor="middle" x="919" y="-31.39" font-family="Times New Roman,serif" font-size="14.00">Streamlit App</text>
<text xml:space="preserve" text-anchor="middle" x="919" y="-14.89" font-family="Times New Roman,serif" font-size="14.00">(UI for manual &amp; CSV input)</text>
</g>
<!-- model&#45;&gt;ui -->
<g id="edge5" class="edge">
<title>model&#45;&gt;ui</title>
<path fill="none" stroke="black" d="M793.65,-28.19C801.38,-28.19 809.51,-28.19 817.76,-28.19"/>
<polygon fill="black" stroke="black" points="817.54,-31.69 827.54,-28.19 817.54,-24.69 817.54,-31.69"/>
</g>
</g>
</svg>
